<svg width="626" height="352" xmlns="http://www.w3.org/2000/svg"><g fill="none" fill-rule="evenodd"><g><path fill="none" d="M0 352h626V0H0z"/><g><path d="M471.6812 185.6001l-40.879-23.607c-4-2.31-3.999-8.082 0-10.392l98.39-56.805c4-2.31 4-8.083 0-10.393l-31.613-18.252c-3.993-2.305-4.002-8.065-.017-10.383l18.216-10.691M142.8813 298.978l40.12-23.29c3.716-2.157 8.303-2.163 12.025-.014l37.866 21.863c3.713 2.143 8.288 2.143 12 0L322.0313 253l44.132-25.479c3.672-2.12 8.191-2.145 11.886-.065l38.111 21.453c3.695 2.08 8.214 2.055 11.886-.065l26.705-15.418" stroke="#E5E6E8" stroke-width="2"/><path d="M89.3716 271.9263l27.115 15.776c3.718 2.164 8.31 2.172 12.035.021l54.488-31.459c3.713-2.143 8.287-2.143 12 0l4.83 2.789c3.723 2.149 8.313 2.143 12.03-.018l52.08-30.27c3.689-2.144 3.665-7.48-.043-9.591-3.714-2.114-3.73-7.462-.029-9.599l201.804-116.512c3.712-2.143 8.287-2.143 12 0l71.138 41.072c3.713 2.144 8.287 2.144 12 0l10.242-5.913" stroke="#FF6F00" stroke-width="2"/><path d="M139.5054 166.1812l-24.325 14.388c-3.934 2.327-3.925 8.022.015 10.338l34.65 20.353c3.724 2.188 8.337 2.206 12.077.046l38.475-22.214c3.739-2.159 8.35-2.142 12.074.043l43.332 25.428" stroke="#425066" stroke-width="2"/><path d="M172.4419 147.7651l57.368-33.122c4.018-2.319 3.995-8.128-.042-10.416l-15.313-8.679c-4.036-2.288-4.06-8.096-.041-10.416l51.735-29.869c3.712-2.144 8.287-2.144 12 0l71.138 41.072c3.713 2.144 8.287 2.144 12 0l77.139-44.536" stroke="#E5E6E8" stroke-width="2"/><path d="M442.4258 51.7993c0-2.209-1.791-4-4-4s-4 1.791-4 4 1.791 4 4 4 4-1.791 4-4" fill="#F5F6F7"/><path d="M442.4258 51.7993c0-2.209-1.791-4-4-4s-4 1.791-4 4 1.791 4 4 4 4-1.791 4-4z" stroke="#E5E6E8" stroke-width="2"/><path d="M458.7515 233.6001c0-2.209-1.791-4-4-4s-4 1.791-4 4 1.791 4 4 4 4-1.791 4-4" fill="#E5E6E8"/><path d="M458.7515 233.6001c0-2.209-1.791-4-4-4s-4 1.791-4 4 1.791 4 4 4 4-1.791 4-4z" stroke="#E5E6E8" stroke-width="2"/><path d="M93.3716 271.9263c0-2.209-1.791-4-4-4s-4 1.791-4 4 1.791 4 4 4 4-1.791 4-4" fill="#FF6F00"/><path d="M93.3716 271.9263c0-2.209-1.791-4-4-4s-4 1.791-4 4 1.791 4 4 4 4-1.791 4-4z" stroke="#FF6F00" stroke-width="2"/><path d="M143.4346 301.0005c0-2.209-1.791-4-4-4s-4 1.791-4 4 1.791 4 4 4 4-1.791 4-4" fill="#FFF"/><path d="M143.4346 301.0005c0-2.209-1.791-4-4-4s-4 1.791-4 4 1.791 4 4 4 4-1.791 4-4zM571.4478 70.3994l-43.766-25.268c-3.678-2.124-8.205-2.145-11.903-.055l-11.149 6.3" stroke="#E5E6E8" stroke-width="2"/><path d="M475.6812 185.6001c0-2.209-1.791-4-4-4s-4 1.791-4 4 1.791 4 4 4 4-1.791 4-4" fill="#F5F6F7"/><path d="M475.6812 185.6001c0-2.209-1.791-4-4-4s-4 1.791-4 4 1.791 4 4 4 4-1.791 4-4z" stroke="#E5E6E8" stroke-width="2"/><path d="M575.4478 70.3994c0-2.209-1.791-4-4-4s-4 1.791-4 4 1.791 4 4 4 4-1.791 4-4" fill="#E5E6E8"/><path d="M575.4478 70.3994c0-2.209-1.791-4-4-4s-4 1.791-4 4 1.791 4 4 4 4-1.791 4-4z" stroke="#E5E6E8" stroke-width="2"/><path d="M176.4419 147.7651c0-2.209-1.791-4-4-4s-4 1.791-4 4 1.791 4 4 4 4-1.791 4-4" fill="#E5E6E8"/><path d="M176.4419 147.7651c0-2.209-1.791-4-4-4s-4 1.791-4 4 1.791 4 4 4 4-1.791 4-4z" stroke="#E5E6E8" stroke-width="2"/><path d="M575.0615 128.2227c0-2.209-1.791-4-4-4s-4 1.791-4 4 1.791 4 4 4 4-1.791 4-4" fill="#F5F6F7"/><path d="M575.0615 128.2227c0-2.209-1.791-4-4-4s-4 1.791-4 4 1.791 4 4 4 4-1.791 4-4z" stroke="#FF6F00" stroke-width="2"/><path d="M177.2075 90.0767c0-2.209-1.791-4-4-4s-4 1.791-4 4 1.791 4 4 4 4-1.791 4-4M143.5054 166.1812c0-2.209-1.791-4-4-4s-4 1.791-4 4 1.791 4 4 4 4-1.791 4-4" fill="#F5F6F7"/><path d="M143.5054 166.1812c0-2.209-1.791-4-4-4s-4 1.791-4 4 1.791 4 4 4 4-1.791 4-4z" stroke="#425066" stroke-width="2"/></g><path fill="#3A485F" d="M398.9819 113.8633v52.318l8.496-4.905v-52.318z"/><path fill="#F8F9FA" d="M362.1685 82.7993l-8.495 4.905 45.308 26.159 8.496-4.905z"/><path fill="#CED0D1" d="M353.6733 87.7041v52.318l45.309 26.159v-52.318z"/><g><path d="M367.8325 128.5776c0 1.806 1.268 4.002 2.832 4.905 1.564.903 2.832.171 2.832-1.635s-1.268-4.002-2.832-4.905c-1.564-.903-2.832-.171-2.832 1.635" fill="#E5E6E8"/><path d="M379.1597 135.1172c0 1.806 1.268 4.002 2.832 4.905 1.564.903 2.832.171 2.832-1.635s-1.268-4.002-2.832-4.905c-1.564-.903-2.832-.171-2.832 1.635M367.8325 115.498c0 1.806 1.268 4.002 2.832 4.905 1.564.903 2.832.171 2.832-1.635s-1.268-4.002-2.832-4.905c-1.564-.903-2.832-.171-2.832 1.635" fill="#697587"/><path d="M379.1597 122.0381c0 1.806 1.268 4.001 2.832 4.905 1.564.903 2.832.171 2.832-1.635s-1.268-4.002-2.832-4.905c-1.564-.903-2.832-.171-2.832 1.635" fill="#E5E6E8"/><path d="M381.9912 136.7524l-6.422 3.708c-3.036 1.752-4.905 4.991-4.905 8.495v14.898c0 3.509-1.875 6.751-4.916 8.502l-37.562 21.622M370.6641 117.1328l-6.422 3.708c-3.036 1.752-6.775 1.752-9.81 0l-12.843-7.415a9.8119 9.8119 0 0 0-9.81 0l-37.574 21.694" stroke="#697587" stroke-width="2" stroke-linecap="round" stroke-linejoin="round"/><path fill="#3A485F" d="M353.6655 140.0269v78.477l8.495-4.905v-78.477z"/><path fill="#F8F9FA" d="M294.1978 95.8833l-8.496 4.905 67.964 39.239 8.495-4.905z"/><path fill="#CED0D1" d="M285.7021 100.7881v78.477l67.963 39.238v-78.476z"/><path d="M299.8613 167.8203c0 1.806 1.268 4.002 2.832 4.905 1.564.903 2.832.171 2.832-1.635s-1.268-4.002-2.832-4.905c-1.564-.903-2.832-.171-2.832 1.635M311.1885 174.3604c0 1.806 1.268 4.001 2.832 4.905 1.564.903 2.832.171 2.832-1.635s-1.268-4.002-2.832-4.905c-1.564-.903-2.832-.171-2.832 1.635M322.5156 180.8999c0 1.806 1.268 4.002 2.832 4.905 1.564.903 2.832.171 2.832-1.635s-1.268-4.002-2.832-4.905c-1.564-.903-2.832-.171-2.832 1.635" fill="#E5E6E8"/><path d="M333.8428 187.4395c0 1.806 1.268 4.002 2.832 4.905 1.564.903 2.832.171 2.832-1.635s-1.268-4.002-2.832-4.905c-1.564-.903-2.832-.171-2.832 1.635M299.8613 154.7407c0 1.806 1.268 4.002 2.832 4.905 1.564.903 2.832.171 2.832-1.635s-1.268-4.002-2.832-4.905c-1.564-.903-2.832-.171-2.832 1.635" fill="#697587"/><path d="M311.1885 161.2808c0 1.806 1.268 4.002 2.832 4.905 1.564.903 2.832.171 2.832-1.635s-1.268-4.002-2.832-4.905c-1.564-.903-2.832-.171-2.832 1.635M322.5156 167.8203c0 1.806 1.268 4.002 2.832 4.905 1.564.903 2.832.171 2.832-1.635s-1.268-4.002-2.832-4.905c-1.564-.903-2.832-.171-2.832 1.635M333.8428 174.3604c0 1.806 1.268 4.002 2.832 4.905 1.564.903 2.832.171 2.832-1.635s-1.268-4.002-2.832-4.905c-1.564-.903-2.832-.171-2.832 1.635" fill="#E5E6E8"/><path d="M299.8613 141.6616c0 1.806 1.268 4.002 2.832 4.905 1.564.903 2.832.171 2.832-1.635s-1.268-4.002-2.832-4.905c-1.564-.903-2.832-.171-2.832 1.635" fill="#697587"/><path d="M311.1885 148.2012c0 1.806 1.268 4.002 2.832 4.905 1.564.903 2.832.171 2.832-1.635s-1.268-4.002-2.832-4.905c-1.564-.903-2.832-.171-2.832 1.635M322.5156 154.7412c0 1.806 1.268 4.001 2.832 4.905 1.564.903 2.832.171 2.832-1.635s-1.268-4.002-2.832-4.905c-1.564-.903-2.832-.171-2.832 1.635M333.8428 161.2808c0 1.806 1.268 4.002 2.832 4.905 1.564.903 2.832.171 2.832-1.635s-1.268-4.002-2.832-4.905c-1.564-.903-2.832-.171-2.832 1.635" fill="#E5E6E8"/><path d="M299.8613 128.582c0 1.806 1.268 4.002 2.832 4.905 1.564.903 2.832.171 2.832-1.635s-1.268-4.002-2.832-4.905c-1.564-.903-2.832-.171-2.832 1.635" fill="#697587"/><path d="M311.1885 135.1221c0 1.806 1.268 4.001 2.832 4.905 1.564.903 2.832.171 2.832-1.635s-1.268-4.002-2.832-4.905c-1.564-.903-2.832-.171-2.832 1.635" fill="#E5E6E8"/><path d="M322.5156 141.6616c0 1.806 1.268 4.002 2.832 4.905 1.564.903 2.832.171 2.832-1.635s-1.268-4.002-2.832-4.905c-1.564-.903-2.832-.171-2.832 1.635" fill="#697587"/><path d="M333.8428 148.2012c0 1.806 1.268 4.002 2.832 4.905 1.564.903 2.832.171 2.832-1.635s-1.268-4.002-2.832-4.905c-1.564-.903-2.832-.171-2.832 1.635" fill="#E5E6E8"/><path d="M302.6929 130.2183l-6.422 3.708c-3.036 1.752-6.775 1.752-9.81 0l-12.843-7.415a9.8119 9.8119 0 0 0-9.81 0l-37.574 21.694M257.666 169.2949l45.027-25.941-6.423 3.708a9.81 9.81 0 0 1-9.809 0l-1.522-.879a9.8096 9.8096 0 0 0-9.801-.004l-40.127 23.116M336.9561 188.9126l-6.422 3.708c-3.036 1.752-4.905 4.991-4.905 8.496v14.897c0 3.509-1.875 6.751-4.916 8.502l-37.562 21.622M290.9077 163.208l11.327-6.591M292.6519 214.6934l44.304-25.781M282.085 194.4331l27.031-15.606c3.034-1.752 4.905-4.991 4.905-8.496v-14.843c0-3.498 1.862-6.732 4.889-8.487l6.438-3.732" stroke="#697587" stroke-width="2" stroke-linecap="round" stroke-linejoin="round"/><path fill="#3A485F" d="M297.311 172.5649v104.636l8.495-4.905v-104.636z"/><path fill="#F8F9FA" d="M215.189 115.3423l-8.496 4.905 90.618 52.318 8.495-4.905z"/><path fill="#CED0D1" d="M206.6934 120.2471v104.635l90.618 52.319v-104.636z"/><path d="M220.8525 213.438c0 1.806 1.268 4.002 2.832 4.905 1.564.903 2.832.171 2.832-1.635s-1.268-4.002-2.832-4.905c-1.564-.903-2.832-.171-2.832 1.635M232.1797 219.978c0 1.806 1.268 4.001 2.832 4.905 1.564.903 2.832.171 2.832-1.635s-1.268-4.002-2.832-4.905c-1.564-.903-2.832-.171-2.832 1.635M243.5068 226.5176c0 1.806 1.268 4.002 2.832 4.905 1.564.903 2.832.171 2.832-1.635s-1.268-4.002-2.832-4.905c-1.564-.903-2.832-.171-2.832 1.635M254.834 233.0571c0 1.806 1.268 4.002 2.832 4.905 1.564.903 2.832.171 2.832-1.635s-1.268-4.002-2.832-4.905c-1.564-.903-2.832-.171-2.832 1.635M266.1611 239.5972c0 1.806 1.268 4.002 2.832 4.905 1.564.903 2.832.171 2.832-1.635s-1.268-4.002-2.832-4.905c-1.564-.903-2.832-.171-2.832 1.635" fill="#E5E6E8"/><path d="M277.4883 246.1367c0 1.806 1.268 4.002 2.832 4.905 1.564.903 2.832.171 2.832-1.635s-1.268-4.002-2.832-4.905c-1.564-.903-2.832-.171-2.832 1.635" fill="#697587"/><path d="M220.8525 200.3584c0 1.806 1.268 4.002 2.832 4.905 1.564.903 2.832.171 2.832-1.635s-1.268-4.002-2.832-4.905c-1.564-.903-2.832-.171-2.832 1.635M232.1797 206.8984c0 1.806 1.268 4.002 2.832 4.905 1.564.903 2.832.171 2.832-1.635s-1.268-4.002-2.832-4.905c-1.564-.903-2.832-.171-2.832 1.635M243.5068 213.438c0 1.806 1.268 4.002 2.832 4.905 1.564.903 2.832.171 2.832-1.635s-1.268-4.002-2.832-4.905c-1.564-.903-2.832-.171-2.832 1.635M254.834 219.978c0 1.806 1.268 4.001 2.832 4.905 1.564.903 2.832.171 2.832-1.635s-1.268-4.002-2.832-4.905c-1.564-.903-2.832-.171-2.832 1.635M266.1611 226.5176c0 1.806 1.268 4.002 2.832 4.905 1.564.903 2.832.171 2.832-1.635s-1.268-4.002-2.832-4.905c-1.564-.903-2.832-.171-2.832 1.635M277.4883 233.0576c0 1.806 1.268 4.001 2.832 4.905 1.564.903 2.832.171 2.832-1.635s-1.268-4.002-2.832-4.905c-1.564-.903-2.832-.171-2.832 1.635M220.8525 187.2793c0 1.806 1.268 4.002 2.832 4.905 1.564.903 2.832.171 2.832-1.635s-1.268-4.002-2.832-4.905c-1.564-.903-2.832-.171-2.832 1.635" fill="#E5E6E8"/><path d="M232.1797 193.8188c0 1.806 1.268 4.002 2.832 4.905 1.564.903 2.832.171 2.832-1.635s-1.268-4.002-2.832-4.905c-1.564-.903-2.832-.171-2.832 1.635" fill="#697587"/><path d="M243.5068 200.3589c0 1.806 1.268 4.001 2.832 4.905 1.564.903 2.832.171 2.832-1.635s-1.268-4.002-2.832-4.905c-1.564-.903-2.832-.171-2.832 1.635" fill="#E5E6E8"/><path d="M254.834 206.8984c0 1.806 1.268 4.002 2.832 4.905 1.564.903 2.832.171 2.832-1.635s-1.268-4.002-2.832-4.905c-1.564-.903-2.832-.171-2.832 1.635" fill="#697587"/><path d="M266.1611 213.438c0 1.806 1.268 4.002 2.832 4.905 1.564.903 2.832.171 2.832-1.635s-1.268-4.002-2.832-4.905c-1.564-.903-2.832-.171-2.832 1.635" fill="#E5E6E8"/><path d="M277.4883 219.978c0 1.806 1.268 4.002 2.832 4.905 1.564.903 2.832.171 2.832-1.635s-1.268-4.002-2.832-4.905c-1.564-.903-2.832-.171-2.832 1.635" fill="#697587"/><path d="M220.8525 174.1997c0 1.806 1.268 4.002 2.832 4.905 1.564.903 2.832.171 2.832-1.635s-1.268-4.002-2.832-4.905c-1.564-.903-2.832-.171-2.832 1.635M232.1797 180.7393c0 1.806 1.268 4.002 2.832 4.905 1.564.903 2.832.171 2.832-1.635s-1.268-4.002-2.832-4.905c-1.564-.903-2.832-.171-2.832 1.635M243.5068 187.2793c0 1.806 1.268 4.002 2.832 4.905 1.564.903 2.832.171 2.832-1.635s-1.268-4.002-2.832-4.905c-1.564-.903-2.832-.171-2.832 1.635M254.834 193.8188c0 1.806 1.268 4.002 2.832 4.905 1.564.903 2.832.171 2.832-1.635s-1.268-4.002-2.832-4.905c-1.564-.903-2.832-.171-2.832 1.635M266.1611 200.3589c0 1.806 1.268 4.002 2.832 4.905 1.564.903 2.832.171 2.832-1.635s-1.268-4.002-2.832-4.905c-1.564-.903-2.832-.171-2.832 1.635M277.4883 206.8984c0 1.806 1.268 4.002 2.832 4.905 1.564.903 2.832.171 2.832-1.635s-1.268-4.002-2.832-4.905c-1.564-.903-2.832-.171-2.832 1.635M220.8525 161.1201c0 1.806 1.268 4.002 2.832 4.905 1.564.903 2.832.171 2.832-1.635s-1.268-4.002-2.832-4.905c-1.564-.903-2.832-.171-2.832 1.635" fill="#E5E6E8"/><path d="M232.1797 167.6602c0 1.806 1.268 4.002 2.832 4.905 1.564.903 2.832.171 2.832-1.635s-1.268-4.002-2.832-4.905c-1.564-.903-2.832-.171-2.832 1.635M243.5068 174.1997c0 1.806 1.268 4.002 2.832 4.905 1.564.903 2.832.171 2.832-1.635s-1.268-4.002-2.832-4.905c-1.564-.903-2.832-.171-2.832 1.635" fill="#697587"/><path d="M254.834 180.7397c0 1.806 1.268 4.001 2.832 4.905 1.564.903 2.832.171 2.832-1.635s-1.268-4.002-2.832-4.905c-1.564-.903-2.832-.171-2.832 1.635M266.1611 187.2793c0 1.806 1.268 4.002 2.832 4.905 1.564.903 2.832.171 2.832-1.635s-1.268-4.002-2.832-4.905c-1.564-.903-2.832-.171-2.832 1.635M277.4883 193.8188c0 1.806 1.268 4.002 2.832 4.905 1.564.903 2.832.171 2.832-1.635s-1.268-4.002-2.832-4.905c-1.564-.903-2.832-.171-2.832 1.635" fill="#E5E6E8"/><path d="M220.8525 148.041c0 1.806 1.268 4.001 2.832 4.905 1.564.903 2.832.171 2.832-1.635s-1.268-4.002-2.832-4.905c-1.564-.903-2.832-.171-2.832 1.635" fill="#697587"/><path d="M232.1797 154.5806c0 1.806 1.268 4.002 2.832 4.905 1.564.903 2.832.171 2.832-1.635s-1.268-4.002-2.832-4.905c-1.564-.903-2.832-.171-2.832 1.635M243.5068 161.1206c0 1.806 1.268 4.001 2.832 4.905 1.564.903 2.832.171 2.832-1.635s-1.268-4.002-2.832-4.905c-1.564-.903-2.832-.171-2.832 1.635M254.834 167.6602c0 1.806 1.268 4.002 2.832 4.905 1.564.903 2.832.171 2.832-1.635s-1.268-4.002-2.832-4.905c-1.564-.903-2.832-.171-2.832 1.635M266.1611 174.1997c0 1.806 1.268 4.002 2.832 4.905 1.564.903 2.832.171 2.832-1.635s-1.268-4.002-2.832-4.905c-1.564-.903-2.832-.171-2.832 1.635M277.4883 180.7397c0 1.806 1.268 4.002 2.832 4.905 1.564.903 2.832.171 2.832-1.635s-1.268-4.002-2.832-4.905c-1.564-.903-2.832-.171-2.832 1.635" fill="#E5E6E8"/><path d="M455.4932 195.4541l-24.695-14.258c-4-2.309-4-8.083 0-10.392l40.883-23.604" stroke="#425066" stroke-width="2"/><path d="M459.4932 195.4541c0-2.209-1.791-4-4-4s-4 1.791-4 4 1.791 4 4 4 4-1.791 4-4" fill="#F5F6F7"/><path d="M459.4932 195.4541c0-2.209-1.791-4-4-4s-4 1.791-4 4 1.791 4 4 4 4-1.791 4-4z" stroke="#425066" stroke-width="2"/><path d="M475.6812 147.1997c0-2.209-1.791-4-4-4s-4 1.791-4 4 1.791 4 4 4 4-1.791 4-4" fill="#425066"/><path d="M475.6812 147.1997c0-2.209-1.791-4-4-4s-4 1.791-4 4 1.791 4 4 4 4-1.791 4-4z" stroke="#425066" stroke-width="2"/></g><g><path d="M230 194c0-5.523 4.477-10 10-10s10 4.477 10 10-4.477 10-10 10-10-4.477-10-10" fill="#FF6F00"/><path d="M200.7456 171.3364c0 25.033 17.575 55.474 39.254 67.991 21.68 12.516 39.255 2.37 39.255-22.664 0-25.033-17.575-55.473-39.255-67.991-21.679-12.516-39.254-2.37-39.254 22.664z" stroke="#FF6F00" stroke-width="2" stroke-dasharray="12.001,8.000999999999999"/></g></g></g></svg>